<svg width="286" height="62" viewBox="0 0 286 62" fill="none" xmlns="http://www.w3.org/2000/svg">
<path d="M45.4551 43.9385L29.1309 60.2617L21.2168 52.3477L24.4844 49.0811L29.1309 53.7285L42.1895 40.6709L45.4551 43.9385ZM28.3223 43.6104L16.5127 55.4199L13.2461 52.1533L25.0547 40.3428L28.3223 43.6104ZM45.0312 52.1533L41.7637 55.4199L38.6846 52.3418L41.9521 49.0752L45.0312 52.1533ZM11.1885 26.4766L6.53418 31.1309L19.584 44.1807L16.3174 47.4482L0 31.1309L7.91992 23.21L11.1885 26.4766ZM37.0518 44.1738L33.7852 47.4414L21.5518 35.208L24.8193 31.9414L37.0518 44.1738ZM53.4336 43.75L50.168 47.0166L38.3584 35.208L41.624 31.9404L53.4336 43.75ZM11.1807 43.9463L8.10938 47.0156L4.84277 43.75L7.91406 40.6787L11.1807 43.9463ZM28.3213 26.8047L16.0811 39.0449L12.8145 35.7783L25.0547 23.5381L28.3213 26.8047ZM58.2627 31.1309L50.3555 39.0381L47.0889 35.7725L51.7285 31.1299L38.6797 18.0801L41.9463 14.8145L58.2627 31.1309ZM45.4492 26.4834L33.2217 38.7109L29.9551 35.4443L42.1816 23.2168L45.4492 26.4834ZM19.918 27.041L16.6514 30.3066L4.84277 18.5L8.11035 15.2334L19.918 27.041ZM36.7236 27.041L33.458 30.3066L21.2236 18.0742L24.4912 14.8066L36.7236 27.041ZM45.0303 10.0947L33.2217 21.9043L29.9531 18.6377L41.7627 6.82812L45.0303 10.0947ZM53.4336 18.498L50.3486 21.583L47.082 18.3164L50.167 15.2314L53.4336 18.498ZM37.0459 9.91309L33.7793 13.1797L29.1318 8.5332L16.0879 21.5771L12.8213 18.3096L29.1318 2L37.0459 9.91309ZM19.5908 9.90723L16.3242 13.1738L13.2461 10.0957L16.5127 6.83008L19.5908 9.90723Z" fill="#F3B229"/>
<path fill-rule="evenodd" clip-rule="evenodd" d="M96.1509 27.8253C97.6287 27.9655 98.948 28.227 100.108 28.6104C101.296 28.9931 102.313 29.5413 103.156 30.2562C103.738 31.1247 104.291 32.0687 104.818 33.0857C105.343 34.0732 105.754 35.122 106.047 36.2329C106.368 37.3138 106.529 38.4435 106.529 39.6207C106.528 40.7977 106.306 41.98 105.863 43.1679C104.864 44.4873 103.637 45.5631 102.184 46.3934C100.729 47.1943 99.1541 47.8802 97.4583 48.4517C95.7909 48.9931 94.0477 49.4484 92.2286 49.817C90.4392 50.1848 88.6945 50.5804 86.9948 51.0049C87.044 51.7982 87.0651 52.6512 87.0582 53.5636C87.0506 54.4466 86.9686 55.3464 86.8144 56.2625C86.6889 57.1484 86.4754 58.0222 86.1724 58.8831C85.8988 59.7432 85.5053 60.5477 84.9931 61.296C84.4032 61.2812 83.7859 61.3545 83.1415 61.5174C82.5263 61.6797 81.9691 61.8406 81.4717 62C81.2325 61.8589 80.9932 61.7177 80.754 61.5765C80.5449 61.4641 80.2781 61.3972 79.9535 61.3758C80.0332 61.0208 79.9346 60.6557 79.6601 60.28C79.4149 59.9035 79.1556 59.5415 78.8817 59.1952C78.6365 58.8187 78.465 58.4543 78.3678 58.1035C78.2997 57.7229 78.4684 57.3806 78.8734 57.0765C78.6326 56.8764 78.5069 56.5552 78.496 56.114C78.6168 56.2288 78.7655 56.2847 78.9423 56.2804C78.8703 55.7525 78.9132 55.1185 79.0718 54.3789C79.2599 53.6386 79.404 52.9139 79.5044 52.2052C79.6336 51.4663 79.6473 50.8031 79.5444 50.2171C79.4406 49.602 79.0756 49.1699 78.4505 48.9205C78.4771 48.8022 78.5349 48.7558 78.6241 48.783C78.7418 48.7801 78.8451 48.7637 78.9327 48.7322C78.6911 48.5027 78.5354 48.1973 78.467 47.8165C78.3979 47.4062 78.2423 47.0717 78 46.8128C78.0552 46.6645 78.0954 46.5163 78.1212 46.3687C78.1765 46.2202 78.3082 46.1574 78.5153 46.1817C78.4109 45.537 78.4112 44.9339 78.5153 44.3723C78.6193 43.8106 78.7823 43.2764 79.0057 42.7706C79.2585 42.2642 79.5419 41.7723 79.8544 41.2939C80.1956 40.7852 80.5221 40.2757 80.8339 39.7678C81.0973 39.7026 81.2598 39.7287 81.3216 39.8448C81.3827 39.9314 81.4852 39.8991 81.6288 39.7485C82.0921 39.4135 82.4078 39.053 82.5753 38.6665C82.7419 38.2504 82.8197 37.8061 82.8081 37.3356C83.0543 36.5645 83.3302 35.8073 83.6361 35.0642C83.9708 34.2908 84.3508 33.5745 84.7768 32.9166C85.2027 32.2588 85.6611 31.6891 86.1503 31.2062C86.6389 30.6939 87.1752 30.2975 87.7581 30.0183C88.1617 29.6555 88.6692 29.3197 89.2804 29.0105C89.9213 28.7005 90.5938 28.4628 91.2973 28.2983C92.0297 28.1037 92.7795 27.9969 93.5457 27.978C94.3111 27.9297 95.0202 27.9852 95.6728 28.1457C95.8216 28.2009 95.9094 28.1692 95.936 28.0508C95.9618 27.9035 96.0334 27.8285 96.1509 27.8253ZM95.0005 36.7265C94.0554 36.6615 93.0994 36.7442 92.1322 36.974C91.1943 37.2031 90.3794 37.65 89.6882 38.3145C89.5784 38.6407 89.4821 38.9373 89.4003 39.2041C89.3472 39.4407 89.2783 39.6629 89.195 39.8709C89.1117 40.0789 89.0143 40.2877 88.9015 40.4965C88.8182 40.7045 88.7208 40.9425 88.6095 41.21C88.6728 41.3849 88.7943 41.5139 88.9732 41.5978C89.1522 41.6816 89.2736 41.8119 89.3369 41.9869C89.7442 41.7709 90.1528 41.6137 90.563 41.5153C90.9727 41.3875 91.3835 41.2887 91.7947 41.2197C92.2056 41.1507 92.6161 41.0664 93.0263 40.9681C93.4367 40.8697 93.8609 40.7119 94.2979 40.4951C94.7347 40.2784 95.1878 40.106 95.6563 39.9768C96.1536 39.8174 96.6364 39.6583 97.1042 39.4997C97.572 39.341 98.025 39.1673 98.4626 38.98C98.8994 38.7632 99.2763 38.4891 99.5923 38.1578C99.1703 37.7856 98.5428 37.4622 97.7104 37.1884C96.878 36.9147 95.9745 36.7613 95.0005 36.7265Z" fill="white"/>
<path d="M112.785 33.2397C113.322 33.4913 113.947 33.7404 114.661 33.9877C115.374 34.2055 115.967 34.3086 116.439 34.297C116.678 34.4382 116.828 34.5526 116.889 34.6394C116.949 34.6966 117.009 34.754 117.069 34.8112C117.403 35.1856 117.693 35.5767 117.939 35.9827C118.184 36.3592 118.272 36.872 118.199 37.5212C118.029 37.7901 117.899 37.9258 117.811 37.9281C117.678 38.5196 117.528 39.0232 117.362 39.4392C117.224 39.8544 117.072 40.2703 116.906 40.6862C116.71 41.1323 116.53 41.5786 116.364 42.024C116.198 42.4694 116.064 43.0173 115.962 43.667C115.848 43.8169 115.763 43.9521 115.707 44.0712C115.68 44.1895 115.64 44.3229 115.584 44.4713C115.529 44.6198 115.459 44.7835 115.375 44.9622C115.32 45.1105 115.22 45.2452 115.076 45.3664C115.007 46.1332 114.874 46.7551 114.679 47.2308C114.514 47.7057 114.334 48.1809 114.139 48.6565C113.807 49.518 113.503 50.3786 113.23 51.2386C112.986 52.0981 112.849 53.0734 112.817 54.163C112.962 54.1007 113.094 54.0683 113.212 54.0654C113.359 54.0618 113.492 54.0573 113.61 54.0544C113.875 54.0479 114.186 54.0849 114.541 54.1644C115.414 53.6722 116.364 53.3693 117.393 53.2556C118.452 53.1412 119.497 53.0561 120.527 53.0012C120.94 52.9911 121.353 52.9812 121.766 52.971C122.178 52.9608 122.56 52.9216 122.912 52.8541C123.181 52.9944 123.346 53.079 123.405 53.1071C123.494 53.1049 123.612 53.1025 123.759 53.0989C123.966 53.0938 124.143 53.1033 124.291 53.1291C124.653 53.4437 124.997 53.6706 125.325 53.8097C125.652 53.9487 125.996 54.0734 126.352 54.1823C126.679 54.2918 126.991 54.4167 127.289 54.5563C127.616 54.6659 127.931 54.8343 128.231 55.0622L128.587 56.9527C128.8 57.2122 128.894 57.3862 128.867 57.4752C128.872 57.7102 128.817 57.8881 128.703 58.0086L128.803 58.4926C128.363 58.5917 128.055 58.702 127.881 58.824C127.737 58.945 127.594 59.0806 127.45 59.2309C127.215 59.2662 127.038 59.2858 126.92 59.2887C126.832 59.2909 126.744 59.2934 126.655 59.2956C126.243 59.3057 125.743 59.3911 125.158 59.5527C124.356 59.3076 123.527 59.1961 122.672 59.2172C122.348 59.2252 122.01 59.2478 121.657 59.2859C121.304 59.3241 120.951 59.3619 120.598 59.4001C120.246 59.4676 119.878 59.5207 119.496 59.5595C119.143 59.5976 118.775 59.6216 118.392 59.631L117.382 59.9211C116.564 60.2062 115.671 60.4932 114.705 60.7818C113.739 61.0705 112.77 61.2267 111.797 61.2507C110.324 61.2869 109.151 60.9484 108.279 60.2346C108.123 59.9147 107.985 59.6963 107.864 59.5815C107.773 59.4663 107.681 59.3517 107.59 59.2364C107.527 59.0909 107.479 58.9002 107.444 58.6659C107.08 58.2629 106.788 57.7987 106.569 57.2744C106.349 56.7209 106.188 56.1659 106.085 55.6094C106.012 55.0227 105.982 54.4344 105.997 53.8454C106.041 53.2558 106.13 52.6942 106.264 52.1612C106.32 52.0422 106.347 51.924 106.344 51.8064C106.371 51.6882 106.397 51.5553 106.423 51.4077C106.529 50.9345 106.636 50.4753 106.742 50.0314C106.879 49.5867 107.062 49.199 107.289 48.8696C107.165 48.6079 107.157 48.3134 107.267 47.987C107.377 47.6607 107.503 47.3629 107.643 47.0946C108.028 45.9674 108.344 45.0182 108.59 44.2472C108.865 43.4459 109.141 42.6584 109.417 41.8865C109.885 40.5508 110.324 39.2302 110.734 37.9254C111.143 36.6207 111.507 35.2142 111.823 33.7058C112.055 33.553 112.229 33.4445 112.345 33.3827C112.521 33.3195 112.668 33.272 112.785 33.2397Z" fill="white"/>
<path fill-rule="evenodd" clip-rule="evenodd" d="M188.236 31.2035C188.388 31.3763 188.598 31.4881 188.864 31.5403C189.16 31.5625 189.473 31.6884 189.802 31.9157C190.149 31.6425 190.442 31.5755 190.681 31.7163C190.95 31.8568 191.19 32.0138 191.401 32.1852C191.611 32.3564 191.807 32.5128 191.987 32.6554C192.197 32.7974 192.407 32.8667 192.613 32.8616C192.826 33.1209 193.081 33.3653 193.382 33.5931C193.712 33.8204 194.014 34.0622 194.285 34.3204C194.586 34.5483 194.827 34.8076 195.011 35.0972C195.225 35.3861 195.337 35.7216 195.346 36.1036C195.32 36.2514 195.367 36.3397 195.485 36.3663C195.604 36.3927 195.694 36.4486 195.755 36.5354C195.807 37.4464 195.68 38.2446 195.372 38.9291C195.094 39.5833 194.725 40.1956 194.268 40.766C193.839 41.3355 193.352 41.8774 192.804 42.3911C192.286 42.9041 191.812 43.4452 191.384 44.0149C191.688 44.3899 192.037 44.7201 192.427 45.0048C192.817 45.2894 193.208 45.574 193.598 45.8586C194.018 46.1425 194.409 46.4417 194.77 46.7564C195.132 47.0712 195.436 47.4472 195.682 47.8825C195.743 47.9398 195.819 47.9964 195.908 48.053C195.997 48.0802 196.086 48.123 196.176 48.1794C196.271 48.4713 196.398 48.7767 196.553 49.0965C196.708 49.3867 196.832 49.6779 196.928 49.9696C197.052 50.2313 197.132 50.4802 197.168 50.7148C197.202 50.9199 197.147 51.0975 197.004 51.2482C197.183 51.3321 197.29 51.4776 197.325 51.6827C197.359 51.8871 197.363 52.0485 197.337 52.1667C196.823 52.8561 196.466 53.3364 196.267 53.6062C196.067 53.8759 195.924 54.0853 195.839 54.2345C195.754 54.3543 195.653 54.4597 195.538 54.5508C195.452 54.6412 195.235 54.8379 194.889 55.1406C193.582 55.9674 192.229 56.7072 190.83 57.3597C189.461 58.0114 188.013 58.4739 186.486 58.747C186.259 59.0762 185.807 59.3083 185.132 59.4427C184.487 59.6057 183.886 59.7526 183.329 59.884C183.21 59.8281 183.134 59.7422 183.101 59.6255C183.099 59.5374 183.039 59.4656 182.92 59.4097C182.897 59.7041 182.768 59.8548 182.532 59.8606C182.297 59.8959 182.001 59.8436 181.644 59.7053C181.317 59.5956 180.958 59.4279 180.569 59.2021C180.211 59.005 179.896 58.8219 179.627 58.6521C179.486 58.8908 179.329 59.1304 179.159 59.3698C179.017 59.6084 178.83 59.7749 178.596 59.8689C178.271 59.8181 178.019 59.7798 177.841 59.7548C177.693 59.729 177.547 59.7912 177.403 59.9418C177.225 59.858 177.075 59.7593 176.954 59.6448C176.863 59.5294 176.757 59.4143 176.636 59.2997C176.545 59.2136 176.425 59.1272 176.275 59.0426C176.155 58.9575 175.976 58.8893 175.739 58.8363C175.795 58.7173 175.762 58.5407 175.639 58.3084C175.514 58.0467 175.333 57.8898 175.096 57.8368C175.209 57.628 175.143 57.3785 174.9 57.0902C174.686 56.7719 174.515 56.4232 174.388 56.0439C174.439 55.7191 174.474 55.3653 174.494 54.9825C174.514 54.5997 174.685 54.3744 175.008 54.3074C174.973 54.1023 174.926 53.9264 174.863 53.7808C174.8 53.6352 174.737 53.4892 174.674 53.3436C174.876 53.162 175.019 52.9527 175.101 52.7153C175.183 52.4486 175.25 52.1824 175.302 51.9164C175.355 51.6503 175.423 51.3831 175.505 51.1162C175.587 50.8496 175.743 50.6247 175.975 50.4425C176.218 49.5539 176.408 48.9014 176.545 48.486C176.681 48.0414 176.775 47.6122 176.823 47.1991C176.902 46.7854 176.978 46.3421 177.055 45.8696C177.161 45.3961 177.339 44.8029 177.587 44.0905C177.546 43.6504 177.58 43.2673 177.69 42.9411C177.799 42.5852 177.909 42.2432 178.019 41.9167C178.158 41.5604 178.266 41.2047 178.346 40.8498C178.425 40.4654 178.4 40.0242 178.27 39.5272C177.858 39.5667 177.567 39.7215 177.396 39.9905C177.226 40.2301 177.116 40.5563 177.067 40.9694C176.837 41.2105 176.545 41.3347 176.191 41.3434C175.866 41.322 175.572 41.36 175.309 41.4548C174.501 41.1549 173.798 40.7433 173.197 40.2256C173.022 40.4544 172.896 40.7077 172.82 40.9859L172.7 41.518L172.17 41.5318C172.14 41.533 172.068 41.5932 171.953 41.7133C171.867 41.8037 171.726 42.0572 171.53 42.4736C171.331 42.7726 171.188 42.9674 171.102 43.0579C171.016 43.1483 170.944 43.2245 170.887 43.2848C170.86 43.403 170.819 43.5219 170.763 43.6409C170.736 43.7298 170.694 43.8486 170.639 43.997C170.265 44.3887 170.036 44.6881 169.953 44.8962C169.869 45.0748 169.772 45.2836 169.659 45.5218C169.547 45.7599 169.435 45.9985 169.323 46.2367C169.24 46.4447 169.083 46.6694 168.854 46.9104L168.648 47.5772C168.446 47.7588 168.275 47.984 168.134 48.2523C167.993 48.491 167.852 48.7445 167.711 49.0126C167.572 49.3398 167.417 49.6532 167.247 49.9517C167.078 50.25 166.863 50.5198 166.604 50.7615C166.467 51.2063 166.329 51.5629 166.188 51.8312C166.046 52.0701 165.818 52.3563 165.502 52.6878C165.236 53.8712 164.575 55.1672 163.519 56.576C163.496 56.8414 163.415 57.1092 163.274 57.3776C163.162 57.6155 163.035 57.8538 162.894 58.0925C162.837 58.1822 162.78 58.2869 162.724 58.406C162.668 58.4957 162.626 58.5706 162.598 58.6301L162.519 59.0728C162.378 59.3115 162.221 59.5218 162.049 59.7025C161.877 59.8834 161.718 60.0496 161.574 60.2002C161.517 60.2899 161.417 60.41 161.274 60.5605L160.616 60.841C158.458 60.5997 157.119 59.4853 156.598 57.4972L156.631 57.0558C156.686 56.9073 156.726 56.7581 156.752 56.6104C156.807 56.4325 156.861 56.2547 156.916 56.0769C157.024 55.6624 157.147 55.2478 157.284 54.8326C157.45 54.4167 157.691 54.0421 158.007 53.7107C158.061 53.5034 158.186 53.1766 158.382 52.7304C158.576 52.2547 158.913 51.555 159.392 50.6309C159.787 49.915 160.096 49.3477 160.322 48.9301C160.547 48.5127 160.731 48.1846 160.873 47.9457C160.566 47.4824 160.202 47.064 159.78 46.6918C159.379 45.9661 159.022 45.2682 158.711 44.5992C158.429 43.9295 158.207 43.3319 158.047 42.8063C158.008 42.4251 157.957 42.1028 157.891 41.8398C157.826 41.5765 157.759 41.2978 157.693 41.0052C157.597 40.6839 157.515 40.362 157.448 40.04C157.381 39.7181 157.344 39.3808 157.335 39.0281C157.182 38.8258 157.088 38.6214 157.054 38.4162L157.132 37.9735C157.216 37.7655 157.223 37.4995 157.156 37.1775C157.088 36.8262 157.006 36.4748 156.909 36.1243C156.843 35.8317 156.761 35.5097 156.664 35.1591C156.596 34.8078 156.573 34.4553 156.594 34.1018C156.614 33.7482 156.695 33.4219 156.835 33.1242C157.004 32.7966 157.277 32.5109 157.654 32.2663L158.404 32.203C158.673 32.3436 158.928 32.4853 159.167 32.6265C159.435 32.7375 159.688 32.8635 159.928 33.0046C160.255 33.1437 160.569 33.2828 160.867 33.4226C161.165 33.5624 161.479 33.7466 161.809 33.9739L162.135 34.583L162.722 35.0546L162.733 35.5399C162.765 35.6568 162.784 35.8181 162.789 36.0239C162.798 36.4059 162.863 36.6396 162.983 36.7251L163.173 37.2503C163.184 37.6621 163.238 38.0581 163.336 38.4382C163.433 38.7888 163.529 39.1249 163.625 39.446C163.722 39.7672 163.819 40.1034 163.916 40.4539C164.013 40.8046 164.038 41.1873 163.989 41.6005C164.164 41.5079 164.308 41.4007 164.423 41.2802C164.452 41.2502 164.481 41.2245 164.51 41.2018L164.683 41.0863C164.712 41.0636 164.741 41.0379 164.77 41.0079L167.291 37.4139L167.192 36.9753L168.099 36.0693C168.328 35.8283 168.544 35.6023 168.745 35.3914C168.975 35.1798 169.161 34.9539 169.303 34.715L169.781 34.3506C170.687 32.8569 172.006 31.9114 173.736 31.5156L174.352 31.4125L174.543 31.9817C174.669 32.3022 174.912 32.5906 175.272 32.8465C175.558 33.0335 175.853 33.2091 176.154 33.38C176.89 33.1631 177.599 32.9615 178.28 32.7736C179.424 32.5394 180.567 32.2747 181.71 31.9817C182.853 31.6888 184.088 31.5701 185.416 31.6256C185.591 31.533 185.796 31.4843 186.032 31.4785C186.296 31.4425 186.561 31.4218 186.827 31.4152C187.092 31.4087 187.342 31.4018 187.578 31.396C187.842 31.3601 188.061 31.2959 188.236 31.2035ZM189.122 47.338C188.353 47.2393 187.616 47.2566 186.912 47.3916C186.237 47.4966 185.577 47.6606 184.934 47.8825C184.32 48.1036 183.69 48.2664 183.044 48.3706C182.741 49.2314 182.425 50.1668 182.096 51.1754C181.767 52.1835 181.453 53.1621 181.152 54.1108C182.033 53.9714 182.839 53.7757 183.57 53.5223C184.3 53.2395 185 52.9422 185.671 52.6314C186.371 52.3199 187.041 52.0093 187.682 51.6992C188.352 51.359 189.052 51.0471 189.782 50.7643C189.863 50.468 190.02 50.2288 190.252 50.0466C190.483 49.8644 190.714 49.6961 190.946 49.5434C191.177 49.3611 191.38 49.1797 191.552 48.9989C191.724 48.7888 191.79 48.508 191.752 48.1561C190.797 47.6794 189.92 47.4066 189.122 47.338ZM188.859 36.7059C187.355 36.6841 185.855 36.8541 184.361 37.2146C182.895 37.5744 181.668 38.0604 180.681 38.6733C181.192 39.0727 181.703 39.4278 182.211 39.7389C182.75 40.0492 183.173 40.4801 183.482 41.0313C184.619 40.5324 185.621 39.9193 186.488 39.1917C187.354 38.4347 188.144 37.6062 188.859 36.7059Z" fill="white"/>
<path fill-rule="evenodd" clip-rule="evenodd" d="M144.184 33.0417C144.333 33.1263 144.542 33.2089 144.809 33.2906C145.076 33.3429 145.358 33.4104 145.655 33.4913C146.188 33.5959 146.693 33.7148 147.168 33.8502C147.643 33.9856 148.031 34.1972 148.333 34.484C148.522 34.9502 148.634 35.3013 148.669 35.5358C148.705 35.7702 148.755 36.0047 148.819 36.2384C148.92 36.736 149.006 37.2346 149.077 37.7329C149.178 38.2306 149.25 38.7881 149.295 39.4048C149.454 39.9009 149.585 40.3976 149.686 40.8952C149.815 41.3629 149.931 41.8465 150.032 42.3443C150.197 43.0464 150.361 43.7341 150.525 44.4067C150.688 45.0499 150.895 45.6627 151.145 46.245C151.38 46.2391 151.529 46.2501 151.589 46.278C151.734 46.2155 151.881 46.168 152.028 46.135C152.204 46.1012 152.394 46.0677 152.6 46.0332L153.085 45.9768L153.273 46.4127C153.306 46.5589 153.457 46.7026 153.725 46.843C154.109 46.863 154.392 46.9451 154.573 47.0878C154.752 47.201 154.918 47.3294 155.069 47.4727C155.189 47.5873 155.309 47.6726 155.428 47.7285L156.098 47.9773L155.76 48.6469C155.479 49.1834 155.065 49.7089 154.517 50.2226C153.999 50.7061 153.404 51.1184 152.735 51.4586C152.769 51.6341 152.787 51.8103 152.791 51.9866C152.824 52.1328 152.873 52.2942 152.936 52.4692C153.037 52.9669 153.123 53.4798 153.195 54.0077C153.267 54.5355 153.281 55.0796 153.236 55.6397L153.152 55.8184C152.988 56.3228 152.735 56.845 152.394 57.3831C152.083 57.8909 151.696 58.3567 151.234 58.78C150.802 59.1729 150.309 59.508 149.756 59.7864C149.203 60.0649 148.616 60.2271 147.998 60.2717C147.613 60.193 147.345 60.0969 147.195 59.983C147.075 59.8977 146.94 59.8119 146.79 59.7273C146.701 59.671 146.612 59.6293 146.523 59.6022C146.463 59.5449 146.402 59.5023 146.342 59.4743L145.806 59.2667L145.969 58.6892C146.022 58.4525 146.002 58.2753 145.911 58.1599C145.819 58.0151 145.638 57.8287 145.367 57.6003C145.276 57.5143 145.186 57.4278 145.096 57.3418C145.005 57.2558 144.928 57.1687 144.867 57.082L144.095 56.2625L145.282 55.9243C146.013 55.7003 146.492 55.4231 146.72 55.0938C146.977 54.7638 147.068 54.2178 146.99 53.455C146.398 53.3519 145.896 53.3497 145.485 53.4481C145.104 53.5458 144.709 53.6585 144.299 53.7863C143.772 53.9464 143.231 54.0921 142.674 54.2235C142.145 54.3248 141.557 54.3835 140.909 54.3995C140.673 54.4053 140.452 54.4109 140.246 54.416C140.039 54.3917 139.817 54.3667 139.581 54.3431L139.136 54.2662C139.069 53.9442 139.005 53.7689 138.946 53.7409C138.885 53.6837 138.825 53.6263 138.765 53.5691C138.614 53.4258 138.447 53.2388 138.265 53.0081C138.111 52.7471 138.073 52.4233 138.152 52.0388C137.998 51.7779 137.903 51.5148 137.867 51.251C137.699 51.6083 137.575 51.9801 137.496 52.3647L137.331 52.8101L136.891 52.9091C136.833 52.94 136.79 53.0149 136.763 53.1332C136.736 53.222 136.723 53.2959 136.725 53.3546L136.522 54.1094C136.465 54.1697 136.408 54.2306 136.35 54.2909C136.292 54.3217 136.234 54.3669 136.176 54.427C136.124 54.6932 136.057 54.9603 135.975 55.2272C135.893 55.494 135.811 55.746 135.729 55.9834C135.591 56.3691 135.468 56.7547 135.359 57.1397C135.28 57.4948 135.259 57.849 135.298 58.2011L135.132 58.6906C134.989 58.8707 134.831 59.0223 134.657 59.1443C134.482 59.2369 134.308 59.3295 134.133 59.422C134.076 59.4823 133.988 59.5432 133.872 59.6049C133.784 59.6365 133.711 59.6676 133.653 59.6984L133.533 60.1865L133.004 60.2882C132.681 60.355 132.446 60.4051 132.3 60.4381C132.183 60.4703 132.035 60.4887 131.859 60.4931L131.417 60.4601C131.086 60.2034 130.83 60.0033 130.649 59.8606C130.468 59.6886 130.258 59.5316 130.018 59.3904C129.745 59.0445 129.591 58.7838 129.557 58.6081C129.523 58.4324 129.489 58.2705 129.456 58.1241C129.393 57.9494 129.36 57.8031 129.357 57.6855C129.325 57.5687 129.278 57.4817 129.218 57.4243L128.63 56.9087L129.106 56.5004L129.132 55.7483C129.685 54.2341 130.268 52.7782 130.882 51.3802C131.526 49.9812 132.183 48.5518 132.855 47.0933C133.079 46.617 133.289 46.1403 133.483 45.6647C133.707 45.1886 133.931 44.7124 134.155 44.2362C134.124 44.1487 134.106 44.0459 134.103 43.9282C134.1 43.8107 134.126 43.6778 134.182 43.5295C134.493 43.0215 134.748 42.5737 134.945 42.1862C135.141 41.7694 135.337 41.3519 135.533 40.9351C135.756 40.4295 135.98 39.9387 136.204 39.4625C136.458 38.9855 136.77 38.4925 137.141 37.9831L137.841 37.6559C137.928 37.6244 138.031 37.5933 138.148 37.561C138.264 37.4994 138.396 37.4657 138.543 37.4621L139.209 37.5349C140.024 37.1324 140.732 36.5847 141.334 35.8933C141.936 35.1723 142.549 34.3182 143.174 33.3318L143.601 32.7021L144.184 33.0417ZM143.185 42.6894C142.611 43.3215 142.053 44.027 141.512 44.8054C141.001 45.5832 140.561 46.3153 140.195 47.0012C140.025 47.2702 139.854 47.5392 139.684 47.8082C139.514 48.0772 139.358 48.3457 139.217 48.6139C139.393 48.5802 139.555 48.5612 139.702 48.5575C139.879 48.5532 140.042 48.5342 140.188 48.5012C141.071 48.4206 141.865 48.3423 142.57 48.2661C143.305 48.1597 144.112 48.0079 144.992 47.8096C144.764 46.9324 144.52 46.0254 144.261 45.09C144.001 44.1255 143.727 43.1756 143.438 42.2412L143.185 42.6894Z" fill="white"/>
<path fill-rule="evenodd" clip-rule="evenodd" d="M215.677 30.1297C216.035 30.2974 216.421 30.4055 216.835 30.4542C217.278 30.5022 217.666 30.6834 217.998 30.9986C218.035 31.2919 218.129 31.5256 218.28 31.6985C218.431 31.8418 218.597 31.9848 218.778 32.1274C218.957 32.2406 219.123 32.3691 219.274 32.5124C219.454 32.6551 219.577 32.8582 219.643 33.1215C219.761 33.148 219.835 33.1315 219.863 33.072C219.921 33.0117 220.009 32.9946 220.128 33.0211C220.226 33.4304 220.336 33.7074 220.457 33.8516C220.578 33.9662 220.702 34.2134 220.829 34.5926C220.689 34.8903 220.579 35.202 220.498 35.5276C220.447 35.8231 220.276 36.0483 219.985 36.2026C219.96 36.4092 220.022 36.5261 220.171 36.5519C220.318 36.5483 220.407 36.6191 220.441 36.765C220.477 37.0289 220.437 37.2219 220.322 37.3424C221.058 38.472 221.722 39.6768 222.314 40.9571C222.905 42.2079 223.569 43.3982 224.305 44.5277C224.284 44.8812 224.322 45.2184 224.418 45.5396C224.514 45.861 224.625 46.1828 224.751 46.5034C224.906 46.7938 225.047 47.0987 225.173 47.4191C225.299 47.7397 225.394 48.0622 225.461 48.3843C225.53 48.7944 225.542 49.2499 225.495 49.751C225.448 50.223 225.357 50.697 225.221 51.1712C225.085 51.6157 224.903 52.0317 224.677 52.4197C224.45 52.7782 224.177 53.0505 223.857 53.235C223.458 53.7744 222.966 54.1981 222.384 54.5068C221.802 54.8154 221.266 55.1826 220.775 55.6067C220.456 55.8206 220.09 55.9757 219.68 56.0742C219.299 56.1718 218.904 56.27 218.494 56.3684C218.174 56.5528 217.796 56.7538 217.359 56.9706C216.921 57.1579 216.469 57.3462 216.002 57.5343C215.534 57.693 215.064 57.8222 214.595 57.922C214.125 57.9924 213.713 58.0169 213.359 57.9963C212.483 58.3415 211.619 58.5689 210.767 58.6782C209.944 58.8162 208.97 58.7814 207.844 58.5737C206.787 58.7469 205.799 58.7272 204.88 58.5146C203.99 58.3011 203.184 57.9522 202.465 57.4697C201.774 56.9571 201.154 56.3543 200.606 55.6617C200.087 54.939 199.656 54.1844 199.313 53.3986C199.035 51.7281 199.056 50.212 199.376 48.8504C199.695 47.4596 200.165 46.1828 200.785 45.0199C201.434 43.8268 202.174 42.7338 203.005 41.7421C203.834 40.7213 204.635 39.7302 205.407 38.7696C205.586 38.824 205.719 38.8209 205.806 38.76C205.921 38.6689 206.022 38.5634 206.107 38.4437C206.192 38.2946 206.277 38.1593 206.362 38.0395C206.477 37.9191 206.608 37.843 206.755 37.8099C206.95 37.3637 207.238 37.0325 207.616 36.8172C208.022 36.5718 208.338 36.2392 208.564 35.8218C208.827 35.7564 209.047 35.6633 209.221 35.5413C209.394 35.4195 209.553 35.2833 209.696 35.133C209.869 34.9816 210.043 34.8439 210.217 34.7219C210.39 34.5705 210.594 34.4634 210.829 34.3988L210.816 33.9134C211.341 33.6651 211.717 33.3898 211.946 33.0899C212.203 32.76 212.503 32.3707 212.845 31.9212C213.11 31.8852 213.317 31.8643 213.464 31.8607C213.641 31.8563 213.891 31.8216 214.213 31.7548C214.439 31.3375 214.637 31.0232 214.809 30.813C215.01 30.6021 215.299 30.3743 215.677 30.1297ZM215.88 40.1445C215.824 40.2635 215.724 40.3836 215.58 40.5047C215.436 40.626 215.272 40.6012 215.091 40.4291C215.038 40.6656 214.939 40.8441 214.795 40.9653C214.65 41.0572 214.488 41.1053 214.311 41.1097C214.134 41.0846 213.942 41.0451 213.734 40.9914C213.555 40.9076 213.39 40.8098 213.239 40.6958C212.402 41.3931 211.564 42.0752 210.725 42.7431C209.887 43.4112 209.139 44.1805 208.482 45.0502C208.366 45.1119 208.293 45.1429 208.263 45.1437C208.233 45.1154 208.145 45.1325 208 45.1945C207.778 45.7591 207.496 46.2813 207.154 46.7605C206.841 47.2097 206.527 47.6734 206.215 48.1519C205.902 48.6304 205.636 49.1375 205.413 49.6726C205.19 50.2078 205.072 50.829 205.06 51.5356C205.571 51.9349 206.167 52.1708 206.847 52.2423C207.527 52.3138 208.22 52.3103 208.926 52.234C209.661 52.1571 210.366 52.0521 211.041 51.9178C211.744 51.7533 212.391 51.6629 212.98 51.6483C214.211 51.3237 215.263 50.9157 216.135 50.4233C217.007 49.9016 217.922 49.3784 218.882 48.8545C218.992 48.5282 219.134 48.2604 219.305 48.0502C219.506 47.8393 219.617 47.5275 219.636 47.1153C219.483 46.8836 219.39 46.7083 219.358 46.5914C219.325 46.4451 219.304 46.2252 219.297 45.9315C218.626 45.0357 218.042 44.0784 217.545 43.0607C217.047 42.0137 216.492 41.0416 215.88 40.1445Z" fill="white"/>
<path fill-rule="evenodd" clip-rule="evenodd" d="M244.146 29.4299C244.504 29.5974 244.89 29.7057 245.303 29.7543C245.747 29.8022 246.135 29.9834 246.468 30.2988C246.504 30.5922 246.598 30.8258 246.75 30.9986C246.901 31.142 247.067 31.2849 247.247 31.4276C247.427 31.5408 247.592 31.6692 247.743 31.8126C247.924 31.9553 248.047 32.1584 248.113 32.4217C248.231 32.4481 248.304 32.4315 248.332 32.3722C248.389 32.3119 248.478 32.2949 248.596 32.3213C248.695 32.7308 248.805 33.0076 248.927 33.1517C249.047 33.2664 249.171 33.5137 249.299 33.8928C249.159 34.1905 249.048 34.5034 248.968 34.8291C248.916 35.1243 248.745 35.3486 248.454 35.5028C248.43 35.7094 248.492 35.8263 248.64 35.852C248.787 35.8486 248.877 35.9204 248.91 36.0665C248.946 36.3302 248.907 36.5222 248.792 36.6426C249.527 37.7722 250.192 38.977 250.784 40.2572C251.375 41.5079 252.038 42.6984 252.773 43.8279C252.752 44.1815 252.791 44.5198 252.888 44.8412C252.984 45.1623 253.095 45.4832 253.221 45.8036C253.376 46.094 253.515 46.4002 253.641 46.7207C253.767 47.0411 253.864 47.3626 253.93 47.6845C254 48.0945 254.011 48.5501 253.965 49.0511C253.918 49.5232 253.825 49.9972 253.689 50.4714C253.553 50.9157 253.373 51.332 253.147 51.7198C252.92 52.0786 252.645 52.3507 252.325 52.5351C251.926 53.0747 251.435 53.4983 250.853 53.8069C250.271 54.1155 249.734 54.4828 249.244 54.9069C248.925 55.1206 248.56 55.2773 248.15 55.3757C247.769 55.4734 247.373 55.5702 246.962 55.6686C246.643 55.8529 246.265 56.0542 245.828 56.2708C245.391 56.4581 244.937 56.6464 244.47 56.8345C244.002 56.9931 243.534 57.1224 243.065 57.2222C242.595 57.2926 242.182 57.3171 241.828 57.2964C240.952 57.6417 240.087 57.8691 239.235 57.9784C238.413 58.1163 237.438 58.0815 236.313 57.8739C235.256 58.047 234.267 58.0275 233.348 57.8148C232.458 57.6013 231.654 57.2536 230.934 56.7712C230.243 56.2586 229.624 55.6546 229.076 54.9619C228.557 54.2391 228.125 53.4847 227.781 52.6988C227.504 51.0283 227.525 49.5121 227.846 48.1506C228.165 46.7597 228.635 45.483 229.255 44.3201C229.904 43.127 230.642 42.0339 231.473 41.0423C232.303 40.0213 233.105 39.0305 233.877 38.0698C234.055 38.1242 234.188 38.1211 234.275 38.0601C234.391 37.9691 234.491 37.8636 234.577 37.7439C234.662 37.5947 234.746 37.4595 234.832 37.3397C234.947 37.2192 235.078 37.1431 235.224 37.1101C235.42 36.6639 235.706 36.3327 236.084 36.1174C236.491 35.872 236.808 35.5408 237.033 35.1233C237.297 35.058 237.515 34.9634 237.689 34.8415C237.863 34.7195 238.022 34.5837 238.166 34.4331C238.339 34.2817 238.513 34.144 238.686 34.022C238.86 33.8708 239.064 33.7635 239.298 33.6989L239.286 33.2136C239.81 32.9653 240.187 32.6912 240.415 32.3914C240.673 32.0614 240.972 31.6711 241.315 31.2214C241.579 31.1855 241.785 31.1659 241.932 31.1622C242.109 31.1579 242.359 31.1218 242.682 31.055C242.907 30.6374 243.107 30.3234 243.278 30.1132C243.479 29.9022 243.769 29.6746 244.146 29.4299ZM244.35 39.4447C244.294 39.5638 244.193 39.6836 244.048 39.8049C243.904 39.9261 243.742 39.9012 243.561 39.7293C243.508 39.966 243.409 40.1456 243.265 40.2669C243.119 40.3587 242.958 40.4069 242.781 40.4112C242.604 40.3862 242.411 40.3466 242.204 40.293C242.025 40.2091 241.859 40.11 241.709 39.996C240.871 40.6934 240.033 41.3766 239.195 42.0446C238.356 42.7126 237.609 43.4809 236.952 44.3503C236.836 44.4119 236.763 44.443 236.733 44.4438C236.703 44.4154 236.614 44.4324 236.468 44.4947C236.247 45.0593 235.965 45.5814 235.623 46.0607C235.309 46.5098 234.997 46.9737 234.684 47.4521C234.372 47.9306 234.104 48.4376 233.881 48.9728C233.659 49.508 233.542 50.1292 233.53 50.8358C234.041 51.235 234.637 51.471 235.317 51.5425C235.996 51.6139 236.689 51.6118 237.394 51.5356C238.13 51.4586 238.835 51.3523 239.51 51.218C240.214 51.0535 240.861 50.9644 241.45 50.9499C242.68 50.6253 243.731 50.2158 244.604 49.7235C245.475 49.2017 246.392 48.6787 247.352 48.1547C247.462 47.8287 247.602 47.5604 247.774 47.3504C247.975 47.1395 248.085 46.8278 248.104 46.4154C247.951 46.1841 247.858 46.0099 247.826 45.893C247.793 45.7467 247.773 45.5258 247.765 45.2316C247.095 44.336 246.511 43.3785 246.014 42.3608C245.517 41.3139 244.962 40.3417 244.35 39.4447Z" fill="white"/>
<path d="M264.189 29.7282C264.602 29.7475 264.973 29.8563 265.302 30.0541C265.63 30.2225 266.03 30.2861 266.5 30.2452C266.592 30.39 266.671 30.5354 266.733 30.681C266.825 30.8257 266.932 30.9702 267.053 31.1141L267.713 30.9656C268.043 31.2223 268.332 31.5537 268.578 31.9597C268.853 32.3354 269.039 32.743 269.139 33.182C269.238 33.6208 269.234 34.0475 269.126 34.462C269.018 34.8472 268.745 35.1632 268.309 35.4093C268.342 35.5556 268.346 35.6737 268.319 35.7627C268.32 35.8213 268.307 35.8807 268.279 35.94C268.251 35.9995 268.238 36.0587 268.239 36.1174C268.241 36.1762 268.287 36.2633 268.378 36.3786C267.8 36.8342 267.373 37.4626 267.098 38.2636C266.823 39.0648 266.679 39.7751 266.664 40.3934C267.009 40.0319 267.384 39.6847 267.789 39.3512C268.222 38.9874 268.655 38.6379 269.089 38.3035C269.553 37.9684 269.987 37.6481 270.392 37.3438C270.827 37.0389 271.217 36.735 271.563 36.4323C272.514 35.526 273.426 34.7973 274.297 34.2462C275.196 33.6649 276.139 33.0237 277.124 32.3227C277.358 32.2581 277.535 32.2532 277.654 32.3089C277.802 32.3347 277.95 32.3762 278.099 32.4313C278.095 32.2551 278.034 32.1527 277.916 32.126C277.827 32.0988 277.794 31.982 277.818 31.7754C278.257 31.6469 278.637 31.5056 278.957 31.3506C279.277 31.1662 279.627 30.9956 280.006 30.8391C280.278 31.0973 280.536 31.3703 280.779 31.6586C281.021 31.9174 281.35 32.0705 281.764 32.1192C281.919 32.4389 282.101 32.6848 282.312 32.8561C282.522 32.998 282.732 33.1405 282.942 33.2823C283.151 33.4243 283.333 33.5971 283.486 33.7993C283.667 34.0008 283.779 34.3216 283.819 34.7617C283.706 34.9704 283.579 35.194 283.438 35.4327C283.326 35.6708 283.214 35.9534 283.104 36.2796C282.528 36.8236 281.936 37.31 281.327 37.737C280.748 38.1632 280.153 38.5756 279.544 38.9731C278.935 39.3706 278.311 39.7682 277.672 40.1665C277.033 40.5647 276.382 41.0367 275.717 41.5826C275.575 41.7922 275.388 41.9888 275.156 42.1711C274.954 42.3232 274.736 42.4907 274.505 42.6729C274.273 42.8256 274.056 42.9922 273.854 43.1734C273.653 43.3549 273.495 43.5651 273.383 43.8031C273.296 43.8347 273.207 43.8518 273.119 43.854C273.03 43.8562 272.942 43.8733 272.854 43.9049C272.771 44.1128 272.628 44.2785 272.424 44.4012C272.251 44.5232 272.137 44.6876 272.083 44.8948C272.548 45.8247 273.141 46.531 273.86 47.0135C274.58 47.4961 275.385 47.845 276.275 48.0585C277.164 48.2425 278.125 48.3363 279.157 48.3403C280.188 48.3149 281.264 48.2882 282.384 48.2606C282.501 48.2282 282.543 48.168 282.512 48.0805C282.509 47.9633 282.582 47.9174 282.729 47.943C283.442 48.1608 283.997 48.4861 284.391 48.9178C284.784 49.32 285.251 49.7209 285.792 50.1194C285.761 51.238 285.444 52.1725 284.844 52.9229C284.244 53.6732 283.433 54.2822 282.413 54.7487C281 54.8424 279.746 54.8436 278.653 54.7529C277.589 54.6614 276.535 54.4083 275.492 53.9925C275.433 53.9644 275.372 53.8925 275.311 53.7767C275.249 53.6605 275.188 53.5728 275.127 53.5155C274.948 53.4317 274.726 53.408 274.462 53.444C274.226 53.4498 274.019 53.4255 273.841 53.3711C273.602 53.2592 273.228 53.0483 272.719 52.7373C272.209 52.3967 271.745 52.0835 271.325 51.7996C270.785 51.401 270.273 51.002 269.792 50.602C269.31 50.2019 268.887 49.7701 268.521 49.3082C268.43 49.193 268.31 49.1369 268.163 49.1405C268.015 49.1147 267.882 49.074 267.762 49.0181C266.921 49.5686 266.215 50.2485 265.645 51.0571C265.075 51.8656 264.536 52.6886 264.026 53.5251C263.516 54.3617 262.974 55.1552 262.403 55.905C261.832 56.6545 261.094 57.2313 260.191 57.636C259.925 57.6426 259.688 57.6051 259.48 57.5219C259.271 57.4388 259.077 57.325 258.897 57.1823C258.717 57.069 258.537 56.956 258.357 56.8427C258.178 56.7297 257.984 56.6462 257.777 56.5925C257.768 56.2396 257.686 55.9177 257.532 55.6273C257.407 55.3363 257.267 55.0605 257.113 54.7996C256.989 54.5379 256.894 54.2895 256.829 54.0558C256.764 53.7926 256.817 53.5406 256.988 53.301C256.806 53.1289 256.536 52.944 256.177 52.7469C256.35 52.5662 256.42 52.4023 256.387 52.256C256.383 52.1092 256.349 51.9629 256.286 51.8174C256.224 51.672 256.161 51.5111 256.098 51.3362C256.064 51.1607 256.104 50.9833 256.217 50.8041C256.365 50.8005 256.542 50.7663 256.746 50.7024C256.564 50.4715 256.472 50.3413 256.471 50.3119C256.499 50.2524 256.468 50.1792 256.377 50.0933C256.314 49.9187 256.34 49.815 256.457 49.7826C256.574 49.7209 256.691 49.66 256.807 49.5983C256.889 48.1543 257.106 46.8091 257.459 45.5644C257.811 44.3197 258.21 43.118 258.653 41.9594C259.096 40.8009 259.524 39.6281 259.937 38.441C260.38 37.253 260.731 35.9788 260.992 34.6188C261.309 34.2873 261.548 33.8982 261.714 33.4528C261.91 33.0066 262.106 32.5599 262.301 32.1137C262.526 31.6669 262.765 31.2339 263.02 30.8158C263.304 30.3674 263.694 30.0052 264.189 29.7282Z" fill="white"/>
<path fill-rule="evenodd" clip-rule="evenodd" d="M122.003 5.50787C126.486 5.50787 128.901 8.81836 128.901 13.0135V14.1835H118.497C118.784 16.4664 120.193 17.8364 122.175 17.8367C123.727 17.8367 124.964 17.0949 125.424 15.6396L128.814 16.8371C127.722 19.5766 125.165 21.1183 122.148 21.1186C117.693 21.1186 114.646 17.951 114.646 13.2995C114.646 8.8761 117.721 5.50805 122.003 5.50787ZM121.974 8.70453C120.365 8.70474 119.13 9.6462 118.641 11.4722H124.906C124.877 9.98833 123.928 8.70453 121.974 8.70453Z" fill="white"/>
<path d="M196.483 0C200.764 0.000149009 203.696 2.33989 204.903 6.04959L200.937 7.36262C200.362 5.07985 198.724 3.68217 196.483 3.682C193.322 3.682 191.108 6.39264 191.108 10.5593C191.108 14.7259 193.322 17.4366 196.483 17.4366C198.724 17.4364 200.362 16.0387 200.937 13.7559L204.903 15.069C203.696 18.7787 200.764 21.1184 196.483 21.1186C190.908 21.1186 186.856 16.7521 186.856 10.5593C186.856 4.3664 190.908 0 196.483 0Z" fill="white"/>
<path fill-rule="evenodd" clip-rule="evenodd" d="M213.578 5.50787C217.946 5.5082 220.992 8.64792 220.992 13.2995C220.991 17.9793 217.946 21.1182 213.578 21.1186C209.21 21.1186 206.164 17.9795 206.164 13.2995C206.164 8.64767 209.21 5.50787 213.578 5.50787ZM213.578 8.81865C211.481 8.81865 210.158 10.4741 210.158 13.2995C210.158 16.153 211.481 17.8078 213.578 17.8078C215.676 17.8074 216.969 16.1527 216.969 13.2995C216.969 10.4745 215.676 8.81901 213.578 8.81865Z" fill="white"/>
<path d="M279.563 5.50787C282.236 5.50806 284.621 6.59265 285.799 8.10507L283.5 10.617C282.494 9.33279 281.028 8.61928 279.448 8.61928C278.183 8.61931 277.35 9.16109 277.35 9.98869C277.35 10.9588 278.356 11.1302 280.223 11.5011C282.867 12.0433 286 12.6425 286 16.0383C286 19.1775 283.069 21.1186 279.448 21.1186C276.718 21.1185 273.844 20.1192 272.464 18.2642L274.965 15.7248C275.999 17.1232 277.839 18.0085 279.535 18.0085C280.885 18.0084 282.062 17.5512 282.063 16.4672C282.063 15.3258 280.943 15.1818 278.529 14.7252C276.086 14.2401 273.385 13.6123 273.385 10.3874C273.385 7.50536 275.943 5.50787 279.563 5.50787Z" fill="white"/>
<path fill-rule="evenodd" clip-rule="evenodd" d="M164.986 5.50787C168.808 5.50787 171.107 7.24943 171.107 10.7311V16.866C171.107 17.665 171.453 17.9219 172.343 17.8078V20.8051C169.786 21.1759 168.235 20.6619 167.574 19.4068C166.597 20.4627 165.072 21.0608 163.089 21.0608C160.13 21.0606 157.946 19.2916 157.946 16.6377C157.947 13.6414 160.36 12.3857 163.406 11.8434L167.171 11.1299V10.9016C167.171 9.6175 166.51 8.81869 164.843 8.81865C163.349 8.81865 162.573 9.47507 162.228 10.8164L158.405 10.1028C159.095 7.56294 161.394 5.50797 164.986 5.50787ZM164.211 14.5259C162.889 14.7827 161.912 15.211 161.911 16.4095C161.911 17.4369 162.688 18.036 163.895 18.036C165.591 18.0358 167.171 17.1513 167.171 15.4677V13.9264L164.211 14.5259Z" fill="white"/>
<path d="M109.97 5.79385H113.045V9.13212H109.97V16.0671C109.97 17.3514 110.689 17.5232 111.867 17.5232C112.442 17.5232 112.729 17.4936 113.246 17.4366V20.7473C112.528 20.89 111.666 20.9756 110.661 20.9756C107.614 20.9756 106.005 19.977 106.005 16.8948V9.13212H103.994V5.79385H106.005V1.5124H109.97V5.79385Z" fill="white"/>
<path d="M85.6668 20.8051H81.4428V0.313478H85.6668V20.8051Z" fill="white"/>
<path d="M97.2902 5.50787C100.451 5.50787 102.377 7.64829 102.377 10.9016V20.8051H98.3538V12.0428C98.3536 10.3594 97.664 9.1611 95.9401 9.161C94.5319 9.161 93.1517 10.1603 93.1517 12.1294V20.8051H89.1289V5.79385H93.1517V7.33375C93.985 6.36352 95.365 5.50797 97.2902 5.50787Z" fill="white"/>
<path d="M139.327 5.70723C139.73 5.70723 140.018 5.73644 140.305 5.76498V9.67521C139.846 9.61814 139.5 9.58859 139.012 9.58859C136.914 9.58859 135.304 10.8737 135.304 13.1853V20.8051H131.282V5.79385H135.304V7.90571C135.965 6.59307 137.46 5.70742 139.327 5.70723Z" fill="white"/>
<path d="M150.668 5.50787C153.829 5.50787 155.755 7.64829 155.755 10.9016V20.8051H151.732V12.0428C151.732 10.3594 151.042 9.16118 149.318 9.161C147.91 9.161 146.53 10.1603 146.53 12.1294V20.8051H142.507V5.79385H146.53V7.33375C147.363 6.36352 148.743 5.50792 150.668 5.50787Z" fill="white"/>
<path d="M178.635 20.8051H174.612V0.313478H178.635V20.8051Z" fill="white"/>
<path d="M240.341 5.50787C243.445 5.50787 245.456 7.64829 245.456 10.9016V20.8051H241.434V12.0428C241.433 10.3593 240.801 9.161 239.134 9.161C237.812 9.16107 236.462 10.1603 236.462 12.1294V20.8051H232.439V12.0428C232.439 10.3593 231.806 9.161 230.139 9.161C228.818 9.16106 227.467 10.1603 227.467 12.1294V20.8051H223.444V5.79385H227.467V7.33375C228.271 6.36357 229.622 5.50789 231.576 5.50787C233.416 5.50787 234.824 6.27912 235.657 7.56336C236.577 6.62162 238.014 5.50796 240.341 5.50787Z" fill="white"/>
<path d="M265.599 5.50787C268.703 5.50803 270.715 7.64841 270.715 10.9016V20.8051H266.69V12.0428C266.69 10.3594 266.059 9.16123 264.393 9.161C263.071 9.161 261.72 10.1603 261.72 12.1294V20.8051H257.696V12.0428C257.696 10.3595 257.064 9.16124 255.398 9.161C254.076 9.161 252.725 10.1603 252.725 12.1294V20.8051H248.701V5.79385H252.725V7.33375C253.53 6.36368 254.881 5.50787 256.835 5.50787C258.674 5.50803 260.082 6.27925 260.915 7.56336C261.835 6.62158 263.272 5.50787 265.599 5.50787Z" fill="white"/>
</svg>
